<?xml version="1.0" encoding="utf-8"?>
<!-- Generator: Adobe Illustrator 18.1.0, SVG Export Plug-In . SVG Version: 6.00 Build 0)  -->
<!DOCTYPE svg PUBLIC "-//W3C//DTD SVG 1.1//EN" "http://www.w3.org/Graphics/SVG/1.1/DTD/svg11.dtd">
<svg version="1.1" id="Layer_1" xmlns="http://www.w3.org/2000/svg" xmlns:xlink="http://www.w3.org/1999/xlink" x="0px" y="0px"
	 viewBox="0 0 50 50" enable-background="new 0 0 50 50" xml:space="preserve">
<g>
	<g>
		<path fill="#FFFFFF" d="M46.2,47c-0.2,0-0.4-0.1-0.5-0.2L28.2,29.3c-0.3-0.3-0.3-0.7,0-1c0.3-0.3,0.7-0.3,1,0l17.5,17.5
			c0.3,0.3,0.3,0.7,0,1C46.6,46.9,46.4,47,46.2,47z"/>
	</g>
	<g>
		<path fill="#FFFFFF" d="M18.4,33.8C9.9,33.8,3,26.9,3,18.4S9.9,3,18.4,3s15.4,6.9,15.4,15.4S26.9,33.8,18.4,33.8z M18.4,4.5
			c-7.7,0-13.9,6.2-13.9,13.9s6.2,13.9,13.9,13.9s13.9-6.2,13.9-13.9S26.1,4.5,18.4,4.5z"/>
	</g>
</g>
</svg>
