<?xml version="1.0" encoding="utf-8"?>
<!-- Generator: Adobe Illustrator 18.0.0, SVG Export Plug-In . SVG Version: 6.00 Build 0)  -->
<!DOCTYPE svg PUBLIC "-//W3C//DTD SVG 1.1//EN" "http://www.w3.org/Graphics/SVG/1.1/DTD/svg11.dtd">
<svg version="1.1" id="Layer_1" xmlns="http://www.w3.org/2000/svg" xmlns:xlink="http://www.w3.org/1999/xlink" x="0px" y="0px"
	 viewBox="0 0 12 12" enable-background="new 0 0 12 12" xml:space="preserve">
<g id="Layer_3">
	<path fill="#ed4f2e" d="M11.5,5.5h-5v-5C6.5,0.2,6.3,0,6,0l0,0C5.7,0,5.5,0.2,5.5,0.5v5h-5C0.2,5.5,0,5.7,0,6s0.2,0.5,0.5,0.5h5v5
		C5.5,11.8,5.7,12,6,12l0,0c0.3,0,0.5-0.2,0.5-0.5v-5h5C11.8,6.5,12,6.3,12,6S11.8,5.5,11.5,5.5z"/>
</g>
</svg>
