<?xml version="1.0" encoding="utf-8"?>
<!-- Generator: Adobe Illustrator 18.0.0, SVG Export Plug-In . SVG Version: 6.00 Build 0)  -->
<!DOCTYPE svg PUBLIC "-//W3C//DTD SVG 1.1//EN" "http://www.w3.org/Graphics/SVG/1.1/DTD/svg11.dtd">
<svg version="1.1" id="Layer_1" xmlns="http://www.w3.org/2000/svg" xmlns:xlink="http://www.w3.org/1999/xlink" x="0px" y="0px"
	 viewBox="0 0 60 60" enable-background="new 0 0 60 60" xml:space="preserve">
<g>
	<path fill="#FFFFFF" d="M59,58H1c-0.6,0-1,0.4-1,1s0.4,1,1,1h58c0.6,0,1-0.4,1-1S59.6,58,59,58z"/>
	<path fill="#FFFFFF" d="M2,27v5v17c0,2.8,2.2,5,5,5h46c2.8,0,5-2.2,5-5V32v-5c0-0.6-0.4-1-1-1h-7V15c0-0.6-0.4-1-1-1h-6
		c-0.6,0-1,0.4-1,1v11h-8V15c0-0.6-0.4-1-1-1h-6c-0.6,0-1,0.4-1,1v11h-8V15c0-0.6-0.4-1-1-1h-6c-0.6,0-1,0.4-1,1v11H3
		C2.4,26,2,26.4,2,27z M56,49c0,1.7-1.3,3-3,3H7c-1.7,0-3-1.3-3-3V36.7c1.6,1.8,4,3.1,6,3.1c2.4,0,4.7-1.7,6-4.1
		c1.5,2.7,4.4,4.7,7,4.7c2.5,0,5.5-2,7-4.7c1.5,2.8,4.5,4.7,7,4.7c2.5,0,5.5-1.9,7-4.7c1.3,2.3,3.6,4.1,6,4.1c2,0,4.4-1.3,6-3.1V49z
		 M44,16h4v10h-4V16z M28,16h4v10h-4V16z M12,16h4v10h-4V16z M4,28h7h6h10h6h10h6h7v4c0,2.9-3.5,5.8-6,5.8c-2.5,0-5-2.9-5-5.8
		c0-0.6-0.4-1-1-1s-1,0.4-1,1c0,3.3-3.4,6.5-6,6.5s-6-3.2-6-6.5c0-0.6-0.4-1-1-1s-1,0.4-1,1c0,3.3-3.4,6.5-6,6.5s-6-3.2-6-6.5
		c0-0.6-0.4-1-1-1s-1,0.4-1,1c0,2.9-2.5,5.8-5,5.8c-2.5,0-6-2.9-6-5.8V28z"/>
	<path fill="#FFFFFF" d="M46,12c2.8,0,5-2.2,5-5c0-2.5-3.6-6-4.3-6.7c-0.4-0.4-1-0.4-1.4,0C44.6,1,41,4.5,41,7C41,9.8,43.2,12,46,12
		z M46,2.4c1.4,1.5,3,3.5,3,4.6c0,1.7-1.3,3-3,3s-3-1.3-3-3C43,6,44.6,3.9,46,2.4z"/>
	<path fill="#FFFFFF" d="M30,12c2.8,0,5-2.2,5-5c0-2.5-3.6-6-4.3-6.7c-0.4-0.4-1-0.4-1.4,0C28.6,1,25,4.5,25,7C25,9.8,27.2,12,30,12
		z M30,2.4c1.4,1.5,3,3.5,3,4.6c0,1.7-1.3,3-3,3s-3-1.3-3-3C27,6,28.6,3.9,30,2.4z"/>
	<path fill="#FFFFFF" d="M14,12c2.8,0,5-2.2,5-5c0-2.5-3.6-6-4.3-6.7c-0.4-0.4-1-0.4-1.4,0C12.6,1,9,4.5,9,7C9,9.8,11.2,12,14,12z
		 M14,2.4c1.4,1.5,3,3.5,3,4.6c0,1.7-1.3,3-3,3s-3-1.3-3-3C11,6,12.6,3.9,14,2.4z"/>
</g>
</svg>
