<?xml version="1.0" encoding="utf-8"?>
<!-- Generator: Adobe Illustrator 18.0.0, SVG Export Plug-In . SVG Version: 6.00 Build 0)  -->
<!DOCTYPE svg PUBLIC "-//W3C//DTD SVG 1.1//EN" "http://www.w3.org/Graphics/SVG/1.1/DTD/svg11.dtd">
<svg version="1.1" id="Layer_1" xmlns="http://www.w3.org/2000/svg" xmlns:xlink="http://www.w3.org/1999/xlink" x="0px" y="0px"
	 viewBox="0 0 60 60" enable-background="new 0 0 60 60" xml:space="preserve">
<g>
	<path fill="#FFFFFF" d="M33,32h-2v-2c0-0.6-0.4-1-1-1s-1,0.4-1,1v2h-2c-0.6,0-1,0.4-1,1s0.4,1,1,1h2v2c0,0.6,0.4,1,1,1s1-0.4,1-1
		v-2h2c0.6,0,1-0.4,1-1S33.6,32,33,32z"/>
	<path fill="#FFFFFF" d="M59,32h-8c-0.6,0-1,0.4-1,1v5h-3.1l-1.8-12H47c2.7,0,5-2.3,5-5V11c0-0.6-0.4-1-1-1h-4c-0.6,0-1,0.4-1,1v1.3
		c0,1.5-1.4,2.7-3,2.7s-3-1.3-3-2.7V11c0-0.6-0.4-1-1-1h-5c-0.6,0-1,0.4-1,1v1.3c0,1.1-0.9,2.2-2,2.6V6c0.1,0,0.2,0,0.3,0l7-2
		C38.7,3.8,39,3.4,39,3s-0.3-0.8-0.7-1l-7-2c-0.1,0-0.2,0-0.3,0h-1c-0.6,0-1,0.4-1,1v4v9.8c-1.1-0.4-2-1.4-2-2.6V11c0-0.6-0.4-1-1-1
		h-5c-0.6,0-1,0.4-1,1v1c0,1.5-1.5,3-3,3s-3-1.5-3-3v-1c0-0.6-0.4-1-1-1H9c-0.6,0-1,0.4-1,1v10c0,2.7,2.3,5,5,5h1.8l-1.8,12H10v-5
		c0-0.6-0.4-1-1-1H1c-0.6,0-1,0.4-1,1v26c0,0.6,0.4,1,1,1h10h14c0.6,0,1-0.4,1-1V49c0-1.6,0.5-3,4-3s4,1.4,4,3v10c0,0.6,0.4,1,1,1
		h14h10c0.6,0,1-0.4,1-1V33C60,32.4,59.6,32,59,32z M34.4,3L31,4V2L34.4,3z M10,21v-9h2c0,2.7,2.3,5,5,5s5-2.3,5-5h3v0.3
		c0,2.6,2.3,4.7,5,4.7s5-2.2,5-4.7V12h3v0.3c0,2.6,2.3,4.7,5,4.7s5-2.2,5-4.7V12h2v9c0,1.5-1.5,3-3,3h-3H16h-3
		C11.5,24,10,22.5,10,21z M2,34h6v5c0,0.6,0.4,1,1,1h3.8l-2.6,18H2V34z M36,58v-9c0-2.3-1-5-6-5s-6,2.7-6,5v9H12.2l4.7-32h26.3
		l4.7,32H36z M58,58h-8.1l-2.6-18H51c0.6,0,1-0.4,1-1v-5h6V58z"/>
</g>
</svg>
