<?xml version="1.0" encoding="utf-8"?>
<!-- Generator: Adobe Illustrator 18.0.0, SVG Export Plug-In . SVG Version: 6.00 Build 0)  -->
<!DOCTYPE svg PUBLIC "-//W3C//DTD SVG 1.1//EN" "http://www.w3.org/Graphics/SVG/1.1/DTD/svg11.dtd">
<svg version="1.1" id="Layer_1" xmlns="http://www.w3.org/2000/svg" xmlns:xlink="http://www.w3.org/1999/xlink" x="0px" y="0px"
	 viewBox="0 0 60 60" enable-background="new 0 0 60 60" xml:space="preserve">
<g>
	<path fill="#FFFFFF" d="M6.8,34.4c0.2,0.3,0.5,0.5,0.8,0.5c0.2,0,0.4-0.1,0.5-0.2L51.8,6L51,12.9c-0.1,0.5,0.3,1,0.9,1.1
		c0,0,0.1,0,0.1,0c0.5,0,0.9-0.4,1-0.9l1-9c0,0,0-0.1,0-0.1c0-0.1,0-0.1,0-0.2c0-0.1,0-0.1-0.1-0.2c0,0,0-0.1,0-0.1c0,0,0,0,0,0
		c0-0.1-0.1-0.1-0.1-0.1c0,0-0.1-0.1-0.1-0.1c-0.1,0-0.1,0-0.2-0.1c-0.1,0-0.1-0.1-0.2-0.1c0,0,0,0,0,0l-9-1c-0.5-0.1-1,0.3-1.1,0.9
		c-0.1,0.5,0.3,1,0.9,1.1l6.2,0.7L7.1,33C6.6,33.3,6.5,33.9,6.8,34.4z"/>
	<path fill="#FFFFFF" d="M59,58h-3V21c0-0.6-0.4-1-1-1h-8c-0.6,0-1,0.4-1,1v37h-4V31c0-0.6-0.4-1-1-1h-8c-0.6,0-1,0.4-1,1v27h-4V41
		c0-0.6-0.4-1-1-1h-8c-0.6,0-1,0.4-1,1v17h-4v-7c0-0.6-0.4-1-1-1H5c-0.6,0-1,0.4-1,1v7H1c-0.6,0-1,0.4-1,1s0.4,1,1,1h4h8h6h8h6h8h6
		h8h4c0.6,0,1-0.4,1-1S59.6,58,59,58z M6,58v-6h6v6H6z M20,58V42h6v16H20z M34,58V32h6v26H34z M48,58V22h6v36H48z"/>
</g>
</svg>
