<?xml version="1.0" encoding="utf-8"?>
<!-- Generator: Adobe Illustrator 18.1.0, SVG Export Plug-In . SVG Version: 6.00 Build 0)  -->
<!DOCTYPE svg PUBLIC "-//W3C//DTD SVG 1.1//EN" "http://www.w3.org/Graphics/SVG/1.1/DTD/svg11.dtd">
<svg version="1.1" id="Layer_1" xmlns="http://www.w3.org/2000/svg" xmlns:xlink="http://www.w3.org/1999/xlink" x="0px" y="0px"
	 viewBox="0 0 200.8 34" enable-background="new 0 0 200.8 34" xml:space="preserve">
<g>
	<g>
		<path fill="#242F65" d="M196.1,31.5h-36.4c-2,0-3.6-1.6-3.6-3.6V4.6c0-2,1.6-3.6,3.6-3.6h36.4c2,0,3.6,1.6,3.6,3.6v23.3
			C199.7,29.9,198.1,31.5,196.1,31.5z M159.7,2.5c-1.2,0-2.2,1-2.2,2.2v23.3c0,1.2,1,2.2,2.2,2.2h36.4c1.2,0,2.2-1,2.2-2.2V4.6
			c0-1.2-1-2.2-2.2-2.2H159.7z"/>
	</g>
	<g>
		<g>
			<path fill="#242F65" d="M169.2,19.5H167l-0.6-1.5h-3.1l-0.6,1.5h-2.2l3.2-7.3h2.4L169.2,19.5z M165.9,16.6l-1-2.6l-1.1,2.6H165.9
				z"/>
		</g>
		<g>
			<path fill="#242F65" d="M178.5,19.5h-2.2v-4l-2,2.6h-0.2l-1.5-2.6v4h-2.2v-7.3h1.6l2.2,2.7l2.2-2.7h2V19.5z"/>
		</g>
		<g>
			<path fill="#242F65" d="M185.8,19.5h-5.1v-7.3h4.4v2.2h-2.9v0.7h2.9v1.5h-2.9v1.5h3.6V19.5z"/>
		</g>
		<g>
			<path fill="#242F65" d="M195.2,19.5h-2.8l-0.8-0.9c0,0-0.2-0.2-0.4-0.5c-0.3-0.3-0.5-0.5-0.5-0.7c-0.4,0.6-0.8,1-1,1.3l-0.7,0.8
				h-2.7l3-3.8l-2.9-3.5h2.8l0.5,0.7c0.3,0.3,0.6,0.8,1,1.4c0.4-0.6,0.7-1,0.9-1.3l0.6-0.8h2.7l-2.8,3.5L195.2,19.5z"/>
		</g>
	</g>
</g>
<g>
	<g>
		<path fill="#242F65" d="M41.5,33H5.2c-2,0-3.6-1.6-3.6-3.6V6.1c0-2,1.6-3.6,3.6-3.6h36.4c2,0,3.6,1.6,3.6,3.6v23.3
			C45.2,31.4,43.5,33,41.5,33z M5.2,3.9C4,3.9,3,4.9,3,6.1v23.3c0,1.2,1,2.2,2.2,2.2h36.4c1.2,0,2.2-1,2.2-2.2V6.1
			c0-1.2-1-2.2-2.2-2.2H5.2z"/>
	</g>
	<g>
		<g>
			<path fill="#242F65" d="M17.7,12.7l-2.1,4.4c-0.5,1-0.9,2.1-1.2,2.9h0c-0.1-0.7-0.1-1.9-0.2-2.9l-0.4-4.4h-0.8c0,0,0,0-0.1,0
				h-2.4c-0.5,0-0.9,0.6-0.9,1.1c0,0.5,0.4,1.1,0.9,1.1h1.5l1.2,7.3h2.3l4.5-9.5H17.7z"/>
		</g>
		<g>
			<polygon fill="#242F65" points="21,12.7 19.5,22.1 21.5,22.1 23,12.7 			"/>
		</g>
		<g>
			<path fill="#242F65" d="M27.4,16.6c-0.8-0.4-1.3-0.8-1.3-1.3c0-0.5,0.5-1,1.4-1c0.8,0,1.4,0.2,1.7,0.4l0.6-1.6
				c-0.4-0.2-1.1-0.5-2.2-0.5c-2,0-3.7,1.1-3.7,3c0,1.2,0.9,1.9,1.9,2.5c0.9,0.4,1.3,0.8,1.3,1.3c0,0.7-0.4,1.1-1.2,1.1
				c-0.9,0-1.6-0.3-2.2-0.6l-0.7,1.6c0.4,0.3,1.4,0.7,2.7,0.7c2.1,0,3.5-1.1,3.5-3.1C29.2,18,28.5,17.2,27.4,16.6z"/>
		</g>
		<g>
			<path fill="#242F65" d="M36.4,12.7h-2.5l-4.2,9.5h2.1l0.8-2.9h2.7l0.5,2.9h2.1L36.4,12.7z M33.1,18.5l0.9-1.9
				c0.2-0.5,0.5-1.7,0.7-1.7h0c0,0,0.1,1.2,0.1,1.7l0.2,1.9H33.1z"/>
		</g>
	</g>
</g>
<g>
	<g>
		<path fill="#242F65" d="M118.8,31.5H82.4c-2,0-3.6-1.6-3.6-3.6V4.6c0-2,1.6-3.6,3.6-3.6h36.4c2,0,3.6,1.6,3.6,3.6v23.3
			C122.4,29.9,120.8,31.5,118.8,31.5z M82.4,2.5c-1.2,0-2.2,1-2.2,2.2v23.3c0,1.2,1,2.2,2.2,2.2h36.4c1.2,0,2.2-1,2.2-2.2V4.6
			c0-1.2-1-2.2-2.2-2.2H82.4z"/>
	</g>
	<g>
		<path fill="#242F65" d="M107.9,25.7c-2.9,0-5.7-1.3-7.5-3.7c-0.2-0.3-0.2-0.8,0.1-1c0.3-0.2,0.8-0.2,1,0.1c1.5,2,3.8,3.1,6.3,3.1
			c4.4,0,8-3.6,8-8c0-4.4-3.6-8-8-8c-2.5,0-4.8,1.1-6.3,3.1c-0.2,0.3-0.7,0.4-1,0.1c-0.3-0.2-0.4-0.7-0.1-1c1.8-2.3,4.5-3.7,7.5-3.7
			c5.2,0,9.5,4.2,9.5,9.5C117.3,21.5,113.1,25.7,107.9,25.7z"/>
	</g>
	<g>
		<g>
			<polygon fill="#242F65" points="90.4,14.1 89,14.1 89,15.5 90.4,15.5 90.4,14.1 			"/>
		</g>
	</g>
	<g>
		<g>
			<polygon fill="#242F65" points="90.4,17 89,17 89,18.5 90.4,18.5 90.4,17 			"/>
		</g>
	</g>
	<g>
		<g>
			<polygon fill="#242F65" points="87.5,15.5 86.1,15.5 86.1,17 87.5,17 87.5,15.5 			"/>
		</g>
	</g>
	<g>
		<g>
			<polygon fill="#242F65" points="93.3,12.6 91.9,12.6 91.9,14.1 93.3,14.1 93.3,12.6 			"/>
		</g>
	</g>
	<g>
		<g>
			<polygon fill="#242F65" points="93.3,18.5 91.9,18.5 91.9,19.9 93.3,19.9 93.3,18.5 			"/>
		</g>
	</g>
	<g>
		<g>
			<polygon fill="#242F65" points="93.3,21.4 91.9,21.4 91.9,22.8 93.3,22.8 93.3,21.4 			"/>
		</g>
	</g>
	<g>
		<g>
			<polygon fill="#242F65" points="93.3,15.5 91.9,15.5 91.9,17 93.3,17 93.3,15.5 			"/>
		</g>
	</g>
	<g>
		<g>
			<polygon fill="#242F65" points="93.3,9.7 91.9,9.7 91.9,11.2 93.3,11.2 93.3,9.7 			"/>
		</g>
	</g>
	<g>
		<g>
			<polygon fill="#242F65" points="93.3,15.5 91.9,15.5 91.9,17 93.3,17 93.3,15.5 			"/>
		</g>
	</g>
	<g>
		<g>
			<polygon fill="#242F65" points="93.3,12.6 91.9,12.6 91.9,14.1 93.3,14.1 93.3,12.6 			"/>
		</g>
	</g>
	<g>
		<g>
			<polygon fill="#242F65" points="99.2,12.6 97.7,12.6 97.7,14.1 99.2,14.1 99.2,12.6 			"/>
		</g>
	</g>
	<g>
		<g>
			<polygon fill="#242F65" points="99.2,18.5 97.7,18.5 97.7,19.9 99.2,19.9 99.2,18.5 			"/>
		</g>
	</g>
	<g>
		<g>
			<polygon fill="#242F65" points="99.2,21.4 97.7,21.4 97.7,22.8 99.2,22.8 99.2,21.4 			"/>
		</g>
	</g>
	<g>
		<g>
			<polygon fill="#242F65" points="99.2,15.5 97.7,15.5 97.7,17 99.2,17 99.2,15.5 			"/>
		</g>
	</g>
	<g>
		<g>
			<polygon fill="#242F65" points="99.2,9.7 97.7,9.7 97.7,11.2 99.2,11.2 99.2,9.7 			"/>
		</g>
	</g>
	<g>
		<g>
			<polygon fill="#242F65" points="99.2,15.5 97.7,15.5 97.7,17 99.2,17 99.2,15.5 			"/>
		</g>
	</g>
	<g>
		<g>
			<polygon fill="#242F65" points="99.2,12.6 97.7,12.6 97.7,14.1 99.2,14.1 99.2,12.6 			"/>
		</g>
	</g>
	<g>
		<g>
			<polygon fill="#242F65" points="90.4,19.9 89,19.9 89,21.4 90.4,21.4 90.4,19.9 			"/>
		</g>
	</g>
	<g>
		<g>
			<polygon fill="#242F65" points="90.4,11.2 89,11.2 89,12.6 90.4,12.6 90.4,11.2 			"/>
		</g>
	</g>
	<g>
		<g>
			<polygon fill="#242F65" points="96.2,14.1 94.8,14.1 94.8,15.5 96.2,15.5 96.2,14.1 			"/>
		</g>
	</g>
	<g>
		<g>
			<polygon fill="#242F65" points="96.2,17 94.8,17 94.8,18.5 96.2,18.5 96.2,17 			"/>
		</g>
	</g>
	<g>
		<g>
			<polygon fill="#242F65" points="102.1,14.1 100.6,14.1 100.6,15.5 102.1,15.5 102.1,14.1 			"/>
		</g>
	</g>
	<g>
		<g>
			<polygon fill="#242F65" points="102.1,17 100.6,17 100.6,18.5 102.1,18.5 102.1,17 			"/>
		</g>
	</g>
	<g>
		<g>
			<polygon fill="#242F65" points="96.2,19.9 94.8,19.9 94.8,21.4 96.2,21.4 96.2,19.9 			"/>
		</g>
	</g>
	<g>
		<g>
			<polygon fill="#242F65" points="96.2,22.8 94.8,22.8 94.8,24.3 96.2,24.3 96.2,22.8 			"/>
		</g>
	</g>
	<g>
		<g>
			<polygon fill="#242F65" points="96.2,11.2 94.8,11.2 94.8,12.6 96.2,12.6 96.2,11.2 			"/>
		</g>
	</g>
	<g>
		<g>
			<polygon fill="#242F65" points="96.2,8.3 94.8,8.3 94.8,9.7 96.2,9.7 96.2,8.3 			"/>
		</g>
	</g>
	<g>
		<g>
			<path fill="#242F65" d="M90.4,8.4c-0.5,0.2-1,0.5-1.5,0.8v0.5h1.5V8.4L90.4,8.4z"/>
		</g>
	</g>
	<g>
		<g>
			<path fill="#242F65" d="M90.4,22.8H89v0.5c0.5,0.3,0.9,0.6,1.5,0.8V22.8L90.4,22.8z"/>
		</g>
	</g>
	<g>
		<g>
			<path fill="#242F65" d="M87.5,12.6h-1.4c0,0.1-0.1,0.1-0.1,0.2v1.3h1.5V12.6L87.5,12.6z"/>
		</g>
	</g>
	<g>
		<g>
			<path fill="#242F65" d="M87.5,18.5h-1.5v1.3c0,0.1,0,0.1,0.1,0.2h1.4V18.5L87.5,18.5z"/>
		</g>
	</g>
	<g>
		<path fill="#242F65" d="M94.1,25.7c-5.2,0-9.5-4.2-9.5-9.5c0-5.2,4.2-9.5,9.5-9.5s9.5,4.2,9.5,9.5C103.5,21.5,99.3,25.7,94.1,25.7
			z M94.1,8.3c-4.4,0-8,3.6-8,8c0,4.4,3.6,8,8,8c4.4,0,8-3.6,8-8C102.1,11.9,98.5,8.3,94.1,8.3z"/>
	</g>
</g>
</svg>
