<?xml version="1.0" encoding="utf-8"?>
<!-- Generator: Adobe Illustrator 18.0.0, SVG Export Plug-In . SVG Version: 6.00 Build 0)  -->
<!DOCTYPE svg PUBLIC "-//W3C//DTD SVG 1.1//EN" "http://www.w3.org/Graphics/SVG/1.1/DTD/svg11.dtd">
<svg version="1.1" id="Layer_2" xmlns="http://www.w3.org/2000/svg" xmlns:xlink="http://www.w3.org/1999/xlink" x="0px" y="0px"
	 viewBox="0 0 48 48" enable-background="new 0 0 48 48" xml:space="preserve">
<g>
	<path fill="#ed4f2e" d="M44,13.8c-2.2,0-4,1.8-4,4c0,1.8,1.2,3.3,2.8,3.8C42.1,24,39.7,30,34,30c-5.9,0-8.2-9.1-8.8-12.2
		c2.2-0.5,3.8-2.5,3.8-4.8c0-2.8-2.2-5-5-5s-5,2.2-5,5c0,2.4,1.6,4.3,3.8,4.8C22.2,20.9,19.9,30,14,30c-5.7,0-8.1-6.1-8.8-8.5
		c1.6-0.5,2.8-2,2.8-3.8c0-2.2-1.8-4-4-4s-4,1.8-4,4c0,1.9,1.4,3.5,3.1,3.9L7,43.2C7.1,43.7,7.5,44,8,44h32c0.5,0,0.9-0.3,1-0.8
		l3.9-21.5c1.8-0.4,3.1-2,3.1-3.9C48,15.6,46.2,13.8,44,13.8z"/>
	<path fill="#ed4f2e" d="M40,46H8c-0.6,0-1,0.4-1,1s0.4,1,1,1h32c0.6,0,1-0.4,1-1S40.6,46,40,46z"/>
</g>
</svg>
