<?xml version="1.0" encoding="utf-8"?>
<!-- Generator: Adobe Illustrator 18.0.0, SVG Export Plug-In . SVG Version: 6.00 Build 0)  -->
<!DOCTYPE svg PUBLIC "-//W3C//DTD SVG 1.1//EN" "http://www.w3.org/Graphics/SVG/1.1/DTD/svg11.dtd">
<svg version="1.1" id="Layer_1" xmlns="http://www.w3.org/2000/svg" xmlns:xlink="http://www.w3.org/1999/xlink" x="0px" y="0px"
	 viewBox="0 0 60 60" enable-background="new 0 0 60 60" xml:space="preserve">
<g>
	<path fill="#FFFFFF" d="M6,19.2c0,0,0,0.1,0,0.1c0,0.1,0,0.1,0.1,0.2L9.4,26H9c-0.6,0-1,0.4-1,1v27c0,3.4,2.6,6,6,6h22
		c2.1,0,4.3-1.1,5.4-2.6c0.8-1.1,1-2.3,0.6-3.5V46h2c4.6,0,8-3.4,8-8s-3.4-8-8-8h-2v-3c0-0.6-0.4-1-1-1h-0.5l3.6-9.5
		c0-0.1,0-0.2,0-0.3c2.5-0.3,4.4-2.5,4.8-5.7c0.5-4-1.5-9-7.1-10.3c-0.4-0.1-0.8,0.1-1.1,0.4c-0.2,0.3-0.2,0.8,0,1.1
		C42.3,4,41.2,5.4,39.9,7c-0.5,0.7-1,1.3-1.3,2c-0.6,1.3-0.6,2.7-0.1,3.9c0.3,0.6,0.7,1.2,1.2,1.7L34,24.8V1c0-0.6-0.4-1-1-1H21
		c-0.6,0-1,0.4-1,1v25h-0.4l-5.7-11.4c0,0,0,0,0-0.1c0,0,0,0,0,0c0,0,0,0,0,0c-0.1-0.1-0.1-0.1-0.2-0.2c0,0,0,0-0.1-0.1c0,0,0,0,0,0
		l-7-4c-0.3-0.2-0.7-0.2-1.1,0c-0.3,0.2-0.5,0.6-0.4,1L6,19.2C6,19.1,6,19.1,6,19.2z M39.8,56.2c-0.7,1-2.3,1.8-3.8,1.8H14
		c-2.2,0-4-1.8-4-4V28h1h8h0h2h12h7v26c0,0.1,0,0.2,0.1,0.3C40.3,55,40.2,55.6,39.8,56.2z M44,32c3.5,0,6,2.5,6,6s-2.5,6-6,6h-2V32
		H44z M35.6,26l5.7-10.3c0.3,0.1,0.6,0.2,0.8,0.3l-3.7,9.9c0,0,0,0.1,0,0.1L35.6,26L35.6,26z M40.4,9.8c0.2-0.4,0.6-1,1.1-1.5
		c1-1.3,2.4-3,2-5.4c2.8,1.6,3.8,4.7,3.5,7.3c-0.2,1.8-1.2,4-3.3,4h0c-0.5,0-1-0.1-1.6-0.4c-0.9-0.4-1.5-0.9-1.8-1.7
		C40,11.5,40,10.7,40.4,9.8z M22,2h10v4h-5c-0.6,0-1,0.4-1,1s0.4,1,1,1h5v2h-3c-0.6,0-1,0.4-1,1s0.4,1,1,1h3v2h-5c-0.6,0-1,0.4-1,1
		s0.4,1,1,1h5v4h-3c-0.6,0-1,0.4-1,1s0.4,1,1,1h3v4H22V2z M11.6,26l-3.3-6.7l4.3-2.9l4.8,9.5H11.6z M11.1,15.1l-3.3,2.2l-0.6-4.4
		L11.1,15.1z"/>
</g>
</svg>
