<?xml version="1.0" encoding="utf-8"?>
<!-- Generator: Adobe Illustrator 18.0.0, SVG Export Plug-In . SVG Version: 6.00 Build 0)  -->
<!DOCTYPE svg PUBLIC "-//W3C//DTD SVG 1.1//EN" "http://www.w3.org/Graphics/SVG/1.1/DTD/svg11.dtd">
<svg version="1.1" id="Layer_1" xmlns="http://www.w3.org/2000/svg" xmlns:xlink="http://www.w3.org/1999/xlink" x="0px" y="0px"
	 viewBox="0 0 60 60" enable-background="new 0 0 60 60" xml:space="preserve">
<g>
	<path fill="#FFFFFF" d="M30,27.4c4.9,0,8.6-2.1,8.6-4.8c0-2.7-3.7-4.8-8.6-4.8s-8.6,2.1-8.6,4.8C21.4,25.4,25.1,27.4,30,27.4z
		 M30,19.9c3.8,0,6.6,1.5,6.6,2.8c0,1.3-2.8,2.8-6.6,2.8c-3.8,0-6.6-1.5-6.6-2.8C23.4,21.3,26.2,19.9,30,19.9z"/>
	<path fill="#FFFFFF" d="M60,20.9c0-0.1,0-0.2-0.1-0.3c0,0,0,0,0-0.1c0-0.1-0.1-0.2-0.2-0.3c0,0,0,0-0.1,0c0,0-0.1-0.1-0.1-0.1
		c-0.1,0-0.1-0.1-0.2-0.1c0,0,0,0,0,0l-4.1-1.5c0.6-0.7,0.9-1.4,0.9-2.2c0-2.7-3.7-4.8-8.6-4.8c-2.3,0-4.4,0.5-5.9,1.2L37.6,11
		c0.6-0.7,0.9-1.4,0.9-2.2C38.6,6.1,34.9,4,30,4s-8.6,2.1-8.6,4.8c0,0.8,0.3,1.6,0.9,2.2l-3.5,1.5c-1.4-0.6-3.2-1-5.3-1
		c-4.9,0-8.6,2.1-8.6,4.8c0,0.7,0.2,1.3,0.6,1.8l-5,1.9c0,0,0,0,0,0c-0.1,0-0.1,0-0.2,0.1c0,0-0.1,0.1-0.1,0.1c0,0,0,0-0.1,0
		c-0.1,0.1-0.1,0.2-0.2,0.3c0,0,0,0,0,0.1C0,20.7,0,20.8,0,20.9c0,0,0,0,0,0.1c0,0,0,0,0,0v21c0,0.4,0.2,0.7,0.6,0.9l28,13
		c0,0,0,0,0,0c0.1,0,0.2,0.1,0.4,0.1c0.1,0,0.2,0,0.4-0.1c0,0,0,0,0,0l30-13c0.4-0.2,0.6-0.5,0.6-0.9L60,20.9C60,21,60,21,60,20.9
		C60,21,60,20.9,60,20.9z M54.2,16.3c0,0.5-0.5,1.1-1.3,1.6c-0.1,0-0.3,0.1-0.4,0.2c-1.2,0.6-2.9,1-4.9,1c-3.8,0-6.6-1.5-6.6-2.8
		c0-0.5,0.5-1.1,1.3-1.6c0,0,0,0,0,0c1.2-0.7,3.1-1.2,5.3-1.2C51.4,13.6,54.2,15,54.2,16.3z M30,6c3.8,0,6.6,1.5,6.6,2.8
		s-2.8,2.8-6.6,2.8c-3.8,0-6.6-1.5-6.6-2.8S26.2,6,30,6z M24.2,12.4c1.5,0.7,3.5,1.2,5.8,1.2c2.3,0,4.3-0.4,5.8-1.2l4.2,1.8
		c-0.5,0.6-0.9,1.4-0.9,2.1c0,2.7,3.7,4.8,8.6,4.8c2.2,0,4.2-0.4,5.7-1.1l3,1.1L29,32.9L3.6,21.1l3.8-1.4c1.5,0.9,3.7,1.4,6.2,1.4
		c4.9,0,8.6-2.1,8.6-4.8c0-0.9-0.5-1.8-1.2-2.5L24.2,12.4z M13.6,13.6c3.8,0,6.6,1.5,6.6,2.8c0,1.3-2.8,2.8-6.6,2.8S7,17.7,7,16.3
		C7,15,9.9,13.6,13.6,13.6z M2,22.6l26,12.1v18.8L2,41.4V22.6z M58,41.3L30,53.5V34.7l28-12.1V41.3z"/>
</g>
</svg>
