<?xml version="1.0" encoding="utf-8"?>
<!-- Generator: Adobe Illustrator 18.0.0, SVG Export Plug-In . SVG Version: 6.00 Build 0)  -->
<!DOCTYPE svg PUBLIC "-//W3C//DTD SVG 1.1//EN" "http://www.w3.org/Graphics/SVG/1.1/DTD/svg11.dtd">
<svg version="1.1" id="Layer_1" xmlns="http://www.w3.org/2000/svg" xmlns:xlink="http://www.w3.org/1999/xlink" x="0px" y="0px"
	 viewBox="0 0 60 60" enable-background="new 0 0 60 60" xml:space="preserve">
<g>
	<path fill="#FFFFFF" d="M31,60c18.3,0,21-10,21-16c0-7.3-8.1-18-13.4-21.8C38.4,22.1,38.2,22,38,22H24c-0.2,0-0.4,0.1-0.6,0.2
		C18.1,26,10,36.7,10,44C10,50,12.7,60,31,60z M24.3,24h13.3C43.3,28.2,50,38.1,50,44c0,9.2-6.6,14-19,14s-19-4.8-19-14
		C12,38.1,18.7,28.2,24.3,24z"/>
	<path fill="#FFFFFF" d="M24,18c-0.6,0-1,0.4-1,1s0.4,1,1,1h14c0.6,0,1-0.4,1-1s-0.4-1-1-1H24z"/>
	<path fill="#FFFFFF" d="M42.8,3.4c-0.3-0.4-0.7-0.5-1.2-0.4l-7.2,2.7l-2.6-5.2c-0.3-0.7-1.5-0.7-1.8,0l-2.6,5.2l-7.2-2.7
		c-0.4-0.2-0.9,0-1.2,0.4c-0.3,0.4-0.2,0.9,0,1.2c0,0.1,4.8,5.8,4.8,10.4c0,0.6,0.4,1,1,1h12c0.6,0,1-0.4,1-1
		c0-4.6,4.7-10.3,4.8-10.4C43.1,4.3,43.1,3.8,42.8,3.4z M36.1,14H25.9c-0.3-2.9-1.9-5.8-3.2-7.9l4.9,1.8c0.5,0.2,1,0,1.2-0.5L31,3.2
		l2.1,4.2c0.2,0.5,0.8,0.7,1.2,0.5l4.9-1.8C37.9,8.2,36.4,11.1,36.1,14z"/>
	<path fill="#FFFFFF" d="M31,49c-1.7,0-3-1.3-3-3c0-0.6-0.4-1-1-1s-1,0.4-1,1c0,2.4,1.7,4.4,4,4.9V52c0,0.6,0.4,1,1,1s1-0.4,1-1
		v-1.1c2.3-0.5,4-2.5,4-4.9c0-2.8-2.2-5-5-5c-1.7,0-3-1.3-3-3s1.3-3,3-3s3,1.3,3,3c0,0.6,0.4,1,1,1s1-0.4,1-1c0-2.4-1.7-4.4-4-4.9
		V32c0-0.6-0.4-1-1-1s-1,0.4-1,1v1.1c-2.3,0.5-4,2.5-4,4.9c0,2.8,2.2,5,5,5c1.7,0,3,1.3,3,3S32.7,49,31,49z"/>
</g>
</svg>
