<?xml version="1.0" encoding="utf-8"?>
<!-- Generator: Adobe Illustrator 18.0.0, SVG Export Plug-In . SVG Version: 6.00 Build 0)  -->
<!DOCTYPE svg PUBLIC "-//W3C//DTD SVG 1.1//EN" "http://www.w3.org/Graphics/SVG/1.1/DTD/svg11.dtd">
<svg version="1.1" id="Layer_1" xmlns="http://www.w3.org/2000/svg" xmlns:xlink="http://www.w3.org/1999/xlink" x="0px" y="0px"
	 viewBox="0 0 56.7 56.7" enable-background="new 0 0 56.7 56.7" xml:space="preserve">
<g id="_x23_020201ff">
	<path fill="#EF4E22" d="M22.9,4.7c2-1.9,4.9-2.6,7.6-2.7c2.9,0,5.8,0,8.6,0c0,3,0,6.1,0,9.1c-1.9,0-3.7,0-5.6,0
		c-1.2-0.1-2.4,0.8-2.6,2c0,2,0,4.1,0,6.1c2.7,0,5.5,0,8.2,0c-0.2,2.9-0.6,5.9-1,8.8c-2.4,0-4.8,0-7.2,0c0,8.7,0,17.3,0,26
		c-3.6,0-7.2,0-10.7,0c-0.1-8.7,0-17.3,0-26c-1.7,0-3.5,0-5.2,0c0-2.9,0-5.8,0-8.7c1.7,0,3.5,0,5.2,0c0.1-2.8-0.1-5.7,0.1-8.5
		C20.3,8.5,21.2,6.2,22.9,4.7z"/>
</g>
</svg>
