<?xml version="1.0" encoding="utf-8"?>
<!-- Generator: Adobe Illustrator 18.0.0, SVG Export Plug-In . SVG Version: 6.00 Build 0)  -->
<!DOCTYPE svg PUBLIC "-//W3C//DTD SVG 1.1//EN" "http://www.w3.org/Graphics/SVG/1.1/DTD/svg11.dtd">
<svg version="1.1" id="Layer_1" xmlns="http://www.w3.org/2000/svg" xmlns:xlink="http://www.w3.org/1999/xlink" x="0px" y="0px"
	 viewBox="0 0 60 60" enable-background="new 0 0 60 60" xml:space="preserve">
<g>
	<path fill="#FFFFFF" d="M48,40c-0.6,0-1,0.4-1,1v5c0,1.5-1.5,3-3,3c-0.7,0-3,0-3-3v-2.5c0-0.6-0.4-1-1-1s-1,0.4-1,1V46
		c0,3.1,1.9,5,5,5c1.1,0,2.2-0.4,3-1.1V52c0,3.7,1.9,6,5,6s5-2.3,5-6V34c0-5.1-2.4-8.3-6.8-9c-0.6-0.1-1.1,0.3-1.1,0.8
		c-0.1,0.5,0.3,1.1,0.8,1.1c3.4,0.5,5.2,2.9,5.2,7v18c0,1.5-0.4,4-3,4s-3-2.5-3-4V41C49,40.4,48.6,40,48,40z"/>
	<path fill="#FFFFFF" d="M11.2,27c0.5-0.1,0.9-0.6,0.8-1.1c-0.1-0.5-0.6-0.9-1.1-0.8C6.3,25.7,3,29.6,3,34.5L3,52c0,3.7,1.9,6,5,6
		s5-2.3,5-6v-2.1c0.8,0.7,1.9,1.1,3,1.1c2.7,0,5-2.3,5-5v-3c0-0.6-0.4-1-1-1s-1,0.4-1,1v3c0,1.5-1.5,3-3,3s-3-1.4-3-3v-5
		c0-0.6-0.4-1-1-1c-0.6,0-1,0.4-1,1v11c0,1.5-0.4,4-3,4s-3-2.5-3-4l0-17.5C5,30.6,7.6,27.5,11.2,27z"/>
	<path fill="#FFFFFF" d="M45,7c0-3.3-7.3-5-14.5-5C23.3,2,16,3.7,16,7c0,4.3,12.1,4.6,14.5,4.6C32.9,11.6,45,11.3,45,7z M18,7
		c0-0.9,4.4-3,12.5-3C38.8,4,43,6.1,43,7c0,0.7-3.7,2.6-12.5,2.6C21.7,9.6,18,7.7,18,7z"/>
	<path fill="#FFFFFF" d="M30,48c0.2,0.1,0.3,0.1,0.5,0.1c0.2,0,0.4-0.1,0.6-0.2c0.6-0.4,15.6-10.4,15.6-21.5c0-6.4-4.3-9.7-8.6-9.7
		c-2.6,0-5.8,1.3-7.5,4.9c-1.7-3.6-4.9-5.2-7.8-5.2c-4.1,0-8.4,3.1-8.4,10C14.4,38.4,29.4,47.6,30,48z M22.8,18.5
		c2.8,0,6,2.1,6.8,6.8c0.1,0.5,0.5,0.8,1,0.8s0.9-0.4,1-0.8c0.8-4.8,4-6.5,6.5-6.5c3.3,0,6.6,2.6,6.6,7.7c0,8.9-11.5,17.6-14.2,19.5
		c-2.7-1.8-14.1-9.9-14.1-19.5C16.4,21,19.7,18.5,22.8,18.5z"/>
</g>
</svg>
