<?xml version="1.0" encoding="utf-8"?>
<!-- Generator: Adobe Illustrator 18.1.0, SVG Export Plug-In . SVG Version: 6.00 Build 0)  -->
<!DOCTYPE svg PUBLIC "-//W3C//DTD SVG 1.1//EN" "http://www.w3.org/Graphics/SVG/1.1/DTD/svg11.dtd">
<svg version="1.1" id="Layer_1" xmlns="http://www.w3.org/2000/svg" xmlns:xlink="http://www.w3.org/1999/xlink" x="0px" y="0px"
	 viewBox="0 0 15 10" enable-background="new 0 0 15 10" xml:space="preserve">
<g>
	<g>
		<path fill="#F04E23" d="M13.9,9.8H1.1c-0.3,0-0.5-0.2-0.5-0.5c0-0.3,0.2-0.5,0.5-0.5h12.8c0.3,0,0.5,0.2,0.5,0.5
			C14.4,9.6,14.2,9.8,13.9,9.8z"/>
	</g>
	<g>
		<path fill="#F04E23" d="M13.9,5.5H1.1C0.8,5.5,0.6,5.3,0.6,5s0.2-0.5,0.5-0.5h12.8c0.3,0,0.5,0.2,0.5,0.5S14.2,5.5,13.9,5.5z"/>
	</g>
	<g>
		<path fill="#F04E23" d="M13.9,1.2H1.1C0.8,1.2,0.6,1,0.6,0.7s0.2-0.5,0.5-0.5h12.8c0.3,0,0.5,0.2,0.5,0.5S14.2,1.2,13.9,1.2z"/>
	</g>
</g>
</svg>
