<?xml version="1.0" encoding="utf-8"?>
<!-- Generator: Adobe Illustrator 18.0.0, SVG Export Plug-In . SVG Version: 6.00 Build 0)  -->
<!DOCTYPE svg PUBLIC "-//W3C//DTD SVG 1.1//EN" "http://www.w3.org/Graphics/SVG/1.1/DTD/svg11.dtd">
<svg version="1.1" id="Layer_2" xmlns="http://www.w3.org/2000/svg" xmlns:xlink="http://www.w3.org/1999/xlink" x="0px" y="0px"
	 viewBox="17.5 17.5 13 13" enable-background="new 17.5 17.5 13 13" xml:space="preserve">
<path fill="#FFFFFF" d="M24,30.4c3.5,0,6.4-2.9,6.4-6.4s-2.9-6.4-6.4-6.4s-6.4,2.9-6.4,6.4S20.5,30.4,24,30.4z M21.9,21.6
	c0-0.1,0-0.2,0.1-0.2c0.1,0,0.2-0.1,0.3,0l4.8,2.4c0.1,0,0.1,0.1,0.1,0.2s-0.1,0.2-0.1,0.2l-4.8,2.4c0,0-0.1,0-0.1,0
	c0,0-0.1,0-0.1,0c-0.1,0-0.1-0.1-0.1-0.2V21.6z"/>
</svg>
