<?xml version="1.0" encoding="utf-8"?>
<!-- Generator: Adobe Illustrator 18.1.0, SVG Export Plug-In . SVG Version: 6.00 Build 0)  -->
<!DOCTYPE svg PUBLIC "-//W3C//DTD SVG 1.1//EN" "http://www.w3.org/Graphics/SVG/1.1/DTD/svg11.dtd">
<svg version="1.1" id="Layer_1" xmlns="http://www.w3.org/2000/svg" xmlns:xlink="http://www.w3.org/1999/xlink" x="0px" y="0px"
	 viewBox="0 0 50 50" enable-background="new 0 0 50 50" xml:space="preserve">
<g>
	<path fill="#FFFFFF" d="M19.5,36.3c3.9,0,7.6-1.4,10.4-3.7l14.2,14.2c0.4,0.4,0.8,0.5,1.3,0.5c0.5,0,0.9-0.2,1.3-0.5
		c0.7-0.7,0.7-1.9,0-2.6L32.5,30c2.3-2.8,3.6-6.4,3.6-10.3C36.1,10.5,28.7,3,19.5,3C10.3,3,2.8,10.5,2.8,19.6
		C2.8,28.8,10.3,36.3,19.5,36.3z M19.5,6.7c7.1,0,13,5.8,13,13c0,7.1-5.8,13-13,13c-7.1,0-13-5.8-13-13C6.5,12.5,12.3,6.7,19.5,6.7z
		"/>
</g>
</svg>
