<?xml version="1.0" encoding="utf-8"?>
<!-- Generator: Adobe Illustrator 18.0.0, SVG Export Plug-In . SVG Version: 6.00 Build 0)  -->
<!DOCTYPE svg PUBLIC "-//W3C//DTD SVG 1.1//EN" "http://www.w3.org/Graphics/SVG/1.1/DTD/svg11.dtd">
<svg version="1.1" id="Layer_1" xmlns="http://www.w3.org/2000/svg" xmlns:xlink="http://www.w3.org/1999/xlink" x="0px" y="0px"
	 viewBox="0 0 60 60" enable-background="new 0 0 60 60" xml:space="preserve">
<g>
	<path fill="#FFFFFF" d="M18.4,33c0-0.6-0.4-1-1-1h-5c-0.6,0-1,0.4-1,1s0.4,1,1,1h5C17.9,34,18.4,33.6,18.4,33z"/>
	<path fill="#FFFFFF" d="M18.1,20.5c-0.4-0.4-1-0.4-1.4,0c-0.4,0.4-0.4,1,0,1.4l3.8,3.8c0.2,0.2,0.5,0.3,0.7,0.3s0.5-0.1,0.7-0.3
		c0.4-0.4,0.4-1,0-1.4L18.1,20.5z"/>
	<path fill="#FFFFFF" d="M20.5,41.9l-3.8,3.8c-0.4,0.4-0.4,1,0,1.4c0.2,0.2,0.5,0.3,0.7,0.3s0.5-0.1,0.7-0.3l3.8-3.8
		c0.4-0.4,0.4-1,0-1.4C21.5,41.5,20.9,41.5,20.5,41.9z"/>
	<path fill="#FFFFFF" d="M41.6,33c0,0.6,0.4,1,1,1h5c0.6,0,1-0.4,1-1s-0.4-1-1-1h-5C42.1,32,41.6,32.4,41.6,33z"/>
	<path fill="#FFFFFF" d="M31,45.4c-0.6,0-1,0.4-1,1v5c0,0.6,0.4,1,1,1s1-0.4,1-1v-5C32,45.8,31.6,45.4,31,45.4z"/>
	<path fill="#FFFFFF" d="M31,15.1c-0.6,0-1,0.4-1,1v5c0,0.6,0.4,1,1,1s1-0.4,1-1v-5C32,15.6,31.6,15.1,31,15.1z"/>
	<path fill="#FFFFFF" d="M39.5,41.9c-0.4-0.4-1-0.4-1.4,0c-0.4,0.4-0.4,1,0,1.4l3.8,3.8c0.2,0.2,0.5,0.3,0.7,0.3s0.5-0.1,0.7-0.3
		c0.4-0.4,0.4-1,0-1.4L39.5,41.9z"/>
	<path fill="#FFFFFF" d="M38.8,26c0.3,0,0.5-0.1,0.7-0.3l3.8-3.8c0.4-0.4,0.4-1,0-1.4c-0.4-0.4-1-0.4-1.4,0l-3.8,3.8
		c-0.4,0.4-0.4,1,0,1.4C38.3,25.9,38.6,26,38.8,26z"/>
	<path fill="#FFFFFF" d="M48.3,15.6l3.7-3.7l1.2,1.2c0.2,0.2,0.5,0.3,0.7,0.3s0.5-0.1,0.7-0.3c0.4-0.4,0.4-1,0-1.4l-1.9-1.9l0,0l0,0
		l-1.9-1.9c-0.4-0.4-1-0.4-1.4,0c-0.4,0.4-0.4,1,0,1.4l1.2,1.2l-3.8,3.8c-4.1-3.5-9.2-5.7-14.9-6.2V2h1.8c0.6,0,1-0.4,1-1
		s-0.4-1-1-1h-6c-0.6,0-1,0.4-1,1s0.4,1,1,1H30v6C15.7,8,4,19.7,4,34s11.7,26,26,26s26-11.7,26-26C56,26.8,53.1,20.3,48.3,15.6z
		 M30,58C16.8,58,6,47.2,6,34s10.8-24,24-24s24,10.8,24,24S43.2,58,30,58z"/>
</g>
</svg>
