<?xml version="1.0" encoding="utf-8"?>
<!-- Generator: Adobe Illustrator 18.0.0, SVG Export Plug-In . SVG Version: 6.00 Build 0)  -->
<!DOCTYPE svg PUBLIC "-//W3C//DTD SVG 1.1//EN" "http://www.w3.org/Graphics/SVG/1.1/DTD/svg11.dtd">
<svg version="1.1" id="Layer_1" xmlns="http://www.w3.org/2000/svg" xmlns:xlink="http://www.w3.org/1999/xlink" x="0px" y="0px"
	 viewBox="0 0 60 60" enable-background="new 0 0 60 60" xml:space="preserve">
<g>
	<path fill="#FFFFFF" d="M29,38c-1.1,0-2,0.9-2,2c0,0.7,0.4,1.4,1,1.7V49c0,0.6,0.4,1,1,1s1-0.4,1-1v-7.3c0.6-0.3,1-1,1-1.7
		C31,38.9,30.1,38,29,38z"/>
	<path fill="#FFFFFF" d="M44,13c0-7.3-6.1-13-14-13c-7.5,0-13,5.5-13,13h2c0-6.4,4.6-11,11-11c6.7,0,12,4.8,12,11v11.8
		c-3.5-3-8-4.8-13-4.8C18,20,9,29,9,40s9,20,20,20s20-9,20-20c0-5.1-1.9-9.7-5-13.2V13z M29,58c-9.9,0-18-8.1-18-18s8.1-18,18-18
		s18,8.1,18,18S38.9,58,29,58z"/>
</g>
</svg>
