<?xml version="1.0" encoding="utf-8"?>
<!-- Generator: Adobe Illustrator 18.0.0, SVG Export Plug-In . SVG Version: 6.00 Build 0)  -->
<!DOCTYPE svg PUBLIC "-//W3C//DTD SVG 1.1//EN" "http://www.w3.org/Graphics/SVG/1.1/DTD/svg11.dtd">
<svg version="1.1" id="Layer_1" xmlns="http://www.w3.org/2000/svg" xmlns:xlink="http://www.w3.org/1999/xlink" x="0px" y="0px"
	 viewBox="0 0 120.9 142.3" enable-background="new 0 0 120.9 142.3" xml:space="preserve">
<g>
	<g>
		<path fill="#BE4631" d="M2,46.5c0-3,2.1-6.7,4.7-8.2l48.8-28.1c2.6-1.5,6.9-1.5,9.5,0l48.8,28.1c2.6,1.5,4.7,5.2,4.7,8.2v56.2
			c0,3-2.1,6.7-4.7,8.2L65.1,139c-2.6,1.5-6.9,1.5-9.5,0L6.8,110.9c-2.6-1.5-4.7-5.2-4.7-8.2V46.5z"/>
	</g>
	<g>
		<path fill="#F15B38" d="M2,39.5c0-3,2.1-6.7,4.7-8.2L55.6,3.2c2.6-1.5,6.9-1.5,9.5,0l48.8,28.1c2.6,1.5,4.7,5.2,4.7,8.2v56.2
			c0,3-2.1,6.7-4.7,8.2L65.1,132c-2.6,1.5-6.9,1.5-9.5,0L6.8,103.9C4.2,102.4,2,98.7,2,95.7V39.5z"/>
	</g>
</g>
</svg>
