<?xml version="1.0" encoding="utf-8"?>
<!-- Generator: Adobe Illustrator 18.0.0, SVG Export Plug-In . SVG Version: 6.00 Build 0)  -->
<!DOCTYPE svg PUBLIC "-//W3C//DTD SVG 1.1//EN" "http://www.w3.org/Graphics/SVG/1.1/DTD/svg11.dtd">
<svg version="1.1" id="icons" xmlns="http://www.w3.org/2000/svg" xmlns:xlink="http://www.w3.org/1999/xlink" x="0px" y="0px"
	 viewBox="0 0 50.6 63.1" enable-background="new 0 0 50.6 63.1" xml:space="preserve">
<path fill="#fff" d="M41,32h-2v-3c0-0.6-0.4-1-1-1h-0.5l3.7-9.8c2.4-0.3,4.3-2.5,4.7-5.7c0.5-4-1.5-9-7.1-10.3
	c-0.4-0.1-0.8,0.1-1.1,0.4c-0.2,0.3-0.2,0.8,0,1.1C39.3,6,38.2,7.4,36.9,9c-0.5,0.7-1,1.3-1.3,2c-0.6,1.3-0.6,2.7-0.1,3.9
	c0.3,0.6,0.6,1.2,1.1,1.6L31,26.8V3c0-0.6-0.4-1-1-1H18c-0.6,0-1,0.4-1,1v25h-0.4l-5.7-11.4c0,0,0,0,0-0.1c0,0,0,0,0,0c0,0,0,0,0,0
	c-0.1-0.1-0.1-0.1-0.2-0.2c0,0,0,0-0.1-0.1c0,0,0,0,0,0l-7-4c-0.3-0.2-0.7-0.2-1.1,0c-0.3,0.2-0.5,0.6-0.4,1l1,8c0,0,0,0,0,0
	c0,0,0,0.1,0,0.1c0,0.1,0,0.1,0.1,0.2L6.4,28H6c-0.6,0-1,0.4-1,1v27c0,3.4,2.6,6,6,6h22c3.4,0,6-2.6,6-6v-8h2c4.6,0,8-3.4,8-8
	C49,35.4,45.6,32,41,32z M37.4,11.8c0.2-0.5,0.6-1,1.1-1.5c1-1.3,2.4-3,2-5.4c2.8,1.6,3.8,4.7,3.5,7.3c-0.2,1.8-1.2,4-3.3,4
	c0,0,0,0,0,0c-0.5,0-1-0.1-1.6-0.4c-0.9-0.4-1.5-0.9-1.8-1.7C37,13.5,37,12.7,37.4,11.8z M38.3,17.7c0.3,0.1,0.6,0.2,0.9,0.3
	l-3.8,10h-2.8L38.3,17.7C38.3,17.7,38.3,17.7,38.3,17.7z M19,4h10v4h-5c-0.6,0-1,0.4-1,1c0,0.6,0.4,1,1,1h5v2h-3c-0.6,0-1,0.4-1,1
	c0,0.6,0.4,1,1,1h3v2h-5c-0.6,0-1,0.4-1,1c0,0.6,0.4,1,1,1h5v4h-3c-0.6,0-1,0.4-1,1c0,0.6,0.4,1,1,1h3v4H19V4z M8.1,17.1l-3.3,2.2
	l-0.6-4.4L8.1,17.1z M5.3,21.3l4.3-2.9l4.8,9.5H8.6L5.3,21.3z M37,56c0,2.3-1.7,4-4,4H11c-2.2,0-4-1.8-4-4V30h1h8h0h2h12h0.9
	c0,0,0,0,0,0c0,0,0,0,0,0h5.2c0,0,0,0,0,0s0,0,0,0H37V56z M41,46h-2V34h2c3.5,0,6,2.5,6,6C47,43.5,44.5,46,41,46z"/>
</svg>
