<?xml version="1.0" encoding="utf-8"?>
<!-- Generator: Adobe Illustrator 18.0.0, SVG Export Plug-In . SVG Version: 6.00 Build 0)  -->
<!DOCTYPE svg PUBLIC "-//W3C//DTD SVG 1.1//EN" "http://www.w3.org/Graphics/SVG/1.1/DTD/svg11.dtd">
<svg version="1.1" id="Layer_1" xmlns="http://www.w3.org/2000/svg" xmlns:xlink="http://www.w3.org/1999/xlink" x="0px" y="0px"
	 viewBox="0 0 158.3 26.9" enable-background="new 0 0 158.3 26.9" xml:space="preserve">
<g>
	<path fill="#FFFFFF" d="M41.7,19.2c-1,0.7-2.3,1.1-4,1.1c-2,0-4.1-0.6-5.6-2l1.6-2.5c1.1,0.9,2.8,1.6,3.9,1.6
		c1.1,0,1.8-0.3,1.8-1.1c0-0.9-1.9-1.3-2.4-1.4c-0.5-0.1-1.3-0.3-1.9-0.6c-0.6-0.3-2.2-1.1-2.2-3.4c0-2.6,2.2-4.1,5-4.1
		c2.8,0,4.3,1,5,1.6l-1.4,2.5c-0.7-0.6-2.2-1.3-3.3-1.3c-1,0-1.6,0.3-1.6,1c0,0.7,1,1,1.9,1.3c0.9,0.3,1.3,0.4,1.9,0.6
		c0.6,0.2,1.3,0.6,1.7,1c0.4,0.4,1.1,1.3,1.1,2.7C43.3,17.4,42.7,18.5,41.7,19.2z"/>
	<path fill="#FFFFFF" d="M58.2,20.1h-4.3v-6.9c0-1.6-0.2-3-2-3s-2.4,1.5-2.4,3.4v6.5h-4.3V1.7h4.3V6c0,1.3,0,2.8,0,2.8
		c0.7-1.2,1.9-2.1,3.9-2.1c3.8,0,4.8,2.4,4.8,5.6V20.1z"/>
	<path fill="#FFFFFF" d="M72.8,20.1h-4.1l-0.1-1.4c-0.6,0.6-1.6,1.7-3.8,1.7c-2.3,0-4.8-1.3-4.8-4.2s2.7-3.9,5.1-4l3.3-0.1v-0.3
		c0-1.4-1-2.1-2.7-2.1c-1.7,0-3.4,0.7-4,1.2L60.7,8c1.1-0.6,3.2-1.3,5.6-1.3c2.5,0,3.9,0.6,4.9,1.5c1,1,1.6,2.2,1.6,4.5V20.1z
		 M68.6,14.3l-2.1,0.1c-1.3,0.1-2.1,0.6-2.1,1.6c0,1,0.8,1.6,2,1.6c1.1,0,1.9-0.7,2.2-1.2V14.3z"/>
	<path fill="#FFFFFF" d="M83.9,10.8h-0.2c-0.2-0.1-0.8-0.3-1.5-0.3c-1,0-1.7,0.5-2,1s-0.7,1.3-0.7,2.8v5.8h-4.3V6.9h4.3l0,1.9h0.1
		c0.7-1.4,1.8-2.1,3.3-2.1c0.9,0,1.3,0.2,1.3,0.2L83.9,10.8z"/>
	<path fill="#FFFFFF" d="M98.5,14.5h-9.4c0.2,1.9,1.6,2.8,3.4,2.8c1.7,0,3.2-0.7,4-1.3l1.7,2.2c-0.4,0.3-2.2,2.1-6.3,2.1
		c-4.1,0-7-2.5-7-6.9c0-4.4,3.2-6.8,7.1-6.8s6.6,2.6,6.6,6.4C98.5,13.8,98.5,14.5,98.5,14.5z M94.6,12.1c0-1.2-0.9-2.6-2.7-2.6
		c-1.8,0-2.7,1.4-2.7,2.6H94.6z"/>
	<path fill="#FFFFFF" d="M108.7,10.2h-2.9v4.7c0,1.1,0.2,1.4,0.4,1.6c0.2,0.2,0.5,0.3,1,0.3c0.7,0,1.3-0.2,1.3-0.2l0.2,3.3
		c-0.3,0.1-1.5,0.4-3,0.4c-1.5,0-2.5-0.5-3.2-1.2c-0.7-0.8-0.9-1.9-0.9-3.9v-5.1h-1.9V6.9h1.9V3.4h4.3v3.6h2.9V10.2z"/>
	<path fill="#FFFFFF" d="M119.6,10.8h-0.2c-0.2-0.1-0.8-0.3-1.5-0.3c-1,0-1.7,0.5-2,1s-0.7,1.3-0.7,2.8v5.8H111V6.9h4.3l0,1.9h0.1
		c0.7-1.4,1.8-2.1,3.3-2.1c0.9,0,1.3,0.2,1.3,0.2L119.6,10.8z"/>
	<path fill="#FFFFFF" d="M124,5.4c-1.4,0-2.4-0.9-2.4-2.2c0-1.3,1-2.2,2.4-2.2c1.4,0,2.4,0.9,2.4,2.2C126.4,4.5,125.4,5.4,124,5.4z"
		/>
	<rect x="121.9" y="6.9" fill="#FFFFFF" width="4.3" height="13.2"/>
	<path fill="#FFFFFF" d="M136.9,20.4c-1.8,0-3.4-0.6-4.4-2h0l0,1.7h-4.1V1.7h4.3v4.4c0,1.2-0.1,2.4-0.1,2.4h0.1
		c0.6-0.8,1.9-1.8,4.1-1.8c3.8,0,6.2,3,6.2,6.8S140.7,20.4,136.9,20.4z M135.7,10c-1.8,0-3.1,1.4-3.1,3.4s1.3,3.4,3.1,3.4
		c1.8,0,3.1-1.4,3.1-3.4S137.6,10,135.7,10z"/>
	<path fill="#FFFFFF" d="M158.2,14.5h-9.4c0.2,1.9,1.6,2.8,3.4,2.8c1.7,0,3.2-0.7,4-1.3l1.7,2.2c-0.4,0.3-2.2,2.1-6.3,2.1
		c-4.1,0-7-2.5-7-6.9c0-4.4,3.2-6.8,7.1-6.8c3.9,0,6.6,2.6,6.6,6.4C158.3,13.8,158.2,14.5,158.2,14.5z M154.3,12.1
		c0-1.2-0.9-2.6-2.7-2.6c-1.8,0-2.7,1.4-2.7,2.6H154.3z"/>
	<g>
		<path fill="#FFFFFF" d="M23.4,6.4L12.5,0.1c-0.3-0.2-0.7-0.2-1,0c0,0-0.9,0.5-0.9,0.6c-1.2,0.7-1.7,2.1-0.1,2.9c1.9,1,4,2.1,4,2.1
			C17.2,7.1,17,8,17,9.6v1.1l-6.5-3.5C10,7,9.7,7.2,9.7,7.7v1.6c0,0.5,0.4,1.2,0.8,1.4l2.7,1.5c1.4,0.8,3.8,1.7,3.8,3.3v8.7l6.4-3.5
			c0.3-0.2,0.5-0.5,0.5-0.8V7.2C23.9,6.9,23.7,6.6,23.4,6.4z"/>
		<path fill="#FFFFFF" d="M0.4,20.5l10.9,6.3c0.3,0.2,0.7,0.2,1,0c0,0,0.9-0.5,0.9-0.6c1.2-0.7,1.7-2.1,0.1-2.9c-1.9-1-4-2.1-4-2.1
			c-2.7-1.3-2.5-2.3-2.5-3.9v-1.1l6.5,3.5c0.5,0.3,0.8,0,0.8-0.5v-1.6c0-0.5-0.4-1.2-0.8-1.4l-2.7-1.5c-1.4-0.8-3.8-1.7-3.8-3.3V2.7
			L0.4,6.2C0.2,6.4,0,6.8,0,7.1v12.6C0,20,0.2,20.3,0.4,20.5z"/>
	</g>
</g>
</svg>
