<?xml version="1.0" encoding="utf-8"?>
<!-- Generator: Adobe Illustrator 18.0.0, SVG Export Plug-In . SVG Version: 6.00 Build 0)  -->
<!DOCTYPE svg PUBLIC "-//W3C//DTD SVG 1.1//EN" "http://www.w3.org/Graphics/SVG/1.1/DTD/svg11.dtd">
<svg version="1.1" id="Layer_1" xmlns="http://www.w3.org/2000/svg" xmlns:xlink="http://www.w3.org/1999/xlink" x="0px" y="0px"
	 viewBox="0 0 65 73" enable-background="new 0 0 65 73" xml:space="preserve">
<path fill="#ed4f2e" d="M62.5,16.7L34.1,0.3c-0.7-0.4-1.9-0.4-2.6,0c0,0-2.5,1.5-2.6,1.6c-3.2,1.8-4.6,5.6-0.3,7.9
	c5.1,2.7,13.5,7.3,13.5,7.3c4.7,2.2,4.1,4.7,4.1,9v1.1c0,0.9-0.9,1.4-1.7,1l-16-8.6c-1.2-0.7-2.2-0.1-2.2,1.3v4.3
	c0,1.4,1,3.1,2.2,3.8l7.2,4.1c3.7,2.1,10.4,4.6,10.4,8.8v23.6L63.7,56c0.7-0.4,1.3-1.4,1.3-2.3V21.1C65,19.5,63.9,17.5,62.5,16.7z"
	/>
<path fill="#ed4f2e" d="M2.5,56.3l28.4,16.4c0.7,0.4,1.9,0.4,2.6,0c0,0,2.5-1.5,2.6-1.6c3.2-1.8,4.6-5.6,0.3-7.9
	c-5.1-2.7-13.5-7.3-13.5-7.3c-4.7-2.2-4.1-4.7-4.1-9v-1.1c0-0.9,0.9-1.4,1.7-1l16,8.6c1.2,0.7,2.2,0.1,2.2-1.3v-4.3
	c0-1.4-1-3.1-2.2-3.8l-7.2-4.1c-3.7-2.1-10.4-4.6-10.4-8.8V7.4L1.3,17C0.6,17.4,0,18.4,0,19.2v32.7C0,53.5,1.1,55.5,2.5,56.3z"/>
</svg>
